<svg width="18" height="18" viewBox="0 0 18 18" fill="none" xmlns="http://www.w3.org/2000/svg">
<path d="M15.75 17.0625H2.25C1.9425 17.0625 1.6875 16.8075 1.6875 16.5C1.6875 16.1925 1.9425 15.9375 2.25 15.9375H15.75C16.0575 15.9375 16.3125 16.1925 16.3125 16.5C16.3125 16.8075 16.0575 17.0625 15.75 17.0625Z" fill="white"/>
<path d="M4.2 6.28516H3C2.5875 6.28516 2.25 6.62266 2.25 7.03516V13.5002C2.25 13.9127 2.5875 14.2502 3 14.2502H4.2C4.6125 14.2502 4.95 13.9127 4.95 13.5002V7.03516C4.95 6.61516 4.6125 6.28516 4.2 6.28516Z" fill="white"/>
<path d="M9.59999 3.89258H8.39999C7.98749 3.89258 7.64999 4.23008 7.64999 4.64258V13.5001C7.64999 13.9126 7.98749 14.2501 8.39999 14.2501H9.59999C10.0125 14.2501 10.35 13.9126 10.35 13.5001V4.64258C10.35 4.23008 10.0125 3.89258 9.59999 3.89258Z" fill="white"/>
<path d="M15 1.5H13.8C13.3875 1.5 13.05 1.8375 13.05 2.25V13.5C13.05 13.9125 13.3875 14.25 13.8 14.25H15C15.4125 14.25 15.75 13.9125 15.75 13.5V2.25C15.75 1.8375 15.4125 1.5 15 1.5Z" fill="white"/>
</svg>
