<svg width="14" height="14" viewBox="0 0 14 14" fill="none" xmlns="http://www.w3.org/2000/svg">
<path d="M12.2908 3.05116C11.3517 2.95783 10.4125 2.88783 9.46751 2.83533V2.82949L9.33918 2.07116C9.25168 1.53449 9.12334 0.729492 7.75834 0.729492H6.23001C4.87084 0.729492 4.74251 1.49949 4.64918 2.06533L4.52668 2.81199C3.98418 2.84699 3.44168 2.88199 2.89918 2.93449L1.70918 3.05116C1.46418 3.07449 1.28918 3.29033 1.31251 3.52949C1.33584 3.76866 1.54584 3.94366 1.79084 3.92033L2.98084 3.80366C6.03751 3.50033 9.11751 3.61699 12.2092 3.92616C12.2267 3.92616 12.2383 3.92616 12.2558 3.92616C12.4775 3.92616 12.67 3.75699 12.6933 3.52949C12.7108 3.29033 12.5358 3.07449 12.2908 3.05116Z" fill="white"/>
<path d="M11.2175 4.74801C11.0775 4.60217 10.885 4.52051 10.6867 4.52051H3.31335C3.11502 4.52051 2.91668 4.60217 2.78252 4.74801C2.64835 4.89384 2.57252 5.09217 2.58418 5.29634L2.94585 11.2813C3.01002 12.168 3.09168 13.2763 5.12752 13.2763H8.87252C10.9083 13.2763 10.99 12.1738 11.0542 11.2813L11.4158 5.30217C11.4275 5.09217 11.3517 4.89384 11.2175 4.74801ZM7.96835 10.3538H6.02585C5.78668 10.3538 5.58835 10.1555 5.58835 9.91634C5.58835 9.67717 5.78668 9.47884 6.02585 9.47884H7.96835C8.20752 9.47884 8.40585 9.67717 8.40585 9.91634C8.40585 10.1555 8.20752 10.3538 7.96835 10.3538ZM8.45835 8.02051H5.54168C5.30252 8.02051 5.10418 7.82217 5.10418 7.58301C5.10418 7.34384 5.30252 7.14551 5.54168 7.14551H8.45835C8.69752 7.14551 8.89585 7.34384 8.89585 7.58301C8.89585 7.82217 8.69752 8.02051 8.45835 8.02051Z" fill="white"/>
</svg>
