<svg width="14" height="14" viewBox="0 0 14 14" fill="none" xmlns="http://www.w3.org/2000/svg">
<path d="M12.25 12.833H1.75C1.51083 12.833 1.3125 12.6347 1.3125 12.3955C1.3125 12.1563 1.51083 11.958 1.75 11.958H12.25C12.4892 11.958 12.6875 12.1563 12.6875 12.3955C12.6875 12.6347 12.4892 12.833 12.25 12.833Z" fill="white"/>
<path d="M11.095 2.02964C9.96336 0.897977 8.85502 0.868811 7.69419 2.02964L6.98836 2.73548C6.93002 2.79381 6.90669 2.88714 6.93002 2.96881C7.37336 4.51464 8.61002 5.75131 10.1559 6.19464C10.1792 6.20048 10.2025 6.20631 10.2259 6.20631C10.29 6.20631 10.3484 6.18298 10.395 6.13631L11.095 5.43048C11.6725 4.85881 11.9525 4.30464 11.9525 3.74464C11.9584 3.16714 11.6784 2.60714 11.095 2.02964Z" fill="white"/>
<path d="M9.10586 6.72596C8.93669 6.6443 8.77336 6.56263 8.61586 6.4693C8.48752 6.39346 8.36502 6.3118 8.24252 6.2243C8.14336 6.16013 8.02669 6.0668 7.91586 5.97346C7.90419 5.96763 7.86336 5.93263 7.81669 5.88596C7.62419 5.72263 7.40836 5.51263 7.21586 5.2793C7.19836 5.26763 7.16919 5.2268 7.12836 5.1743C7.07002 5.1043 6.97086 4.98763 6.88336 4.85346C6.81336 4.76596 6.73169 4.63763 6.65586 4.5093C6.56252 4.3518 6.48086 4.1943 6.39919 4.03096C6.29211 3.80152 5.99097 3.73335 5.81192 3.9124L2.53169 7.19263C2.45586 7.26846 2.38586 7.4143 2.36836 7.51346L2.05336 9.74763C1.99502 10.1443 2.10586 10.5176 2.35086 10.7685C2.56086 10.9726 2.85252 11.0835 3.16752 11.0835C3.23752 11.0835 3.30752 11.0776 3.37752 11.066L5.61752 10.751C5.72252 10.7335 5.86836 10.6635 5.93836 10.5876L9.224 7.30198C9.39947 7.12652 9.33354 6.82463 9.10586 6.72596Z" fill="white"/>
</svg>
