<svg width="80" height="42" viewBox="0 0 80 42" fill="none" xmlns="http://www.w3.org/2000/svg">
<path d="M12.9476 7.43076V12.0317H0.563379V7.43076H12.9476ZM3.1578 2.72758H9.4074V20.8885C9.4074 21.2719 9.46705 21.5829 9.58633 21.8215C9.71413 22.0515 9.89732 22.2177 10.1359 22.3199C10.3745 22.4136 10.6599 22.4605 10.9922 22.4605C11.2307 22.4605 11.4821 22.4392 11.7462 22.3966C12.0189 22.3455 12.2233 22.3029 12.3597 22.2688L13.3054 26.7803C13.0072 26.8655 12.5855 26.972 12.0402 27.0998C11.5034 27.2276 10.8601 27.3085 10.1103 27.3426C8.64484 27.4108 7.3881 27.2404 6.34011 26.8314C5.30064 26.4139 4.504 25.7664 3.95018 24.8888C3.40488 24.0112 3.14076 22.9078 3.1578 21.5786V2.72758Z" fill="#232323"/>
<path d="M28.8016 18.588V7.43076H35.0385V27.0614H29.0828V23.4062H28.8783C28.4438 24.6076 27.7025 25.5619 26.6545 26.269C25.6151 26.9677 24.3583 27.317 22.8843 27.317C21.5466 27.317 20.3708 27.0103 19.3569 26.3969C18.343 25.7834 17.5549 24.9271 16.9926 23.828C16.4302 22.7204 16.1448 21.4253 16.1363 19.9428V7.43076H22.3859V18.7158C22.3944 19.7809 22.6756 20.6201 23.2294 21.2336C23.7832 21.847 24.5372 22.1538 25.4915 22.1538C26.1135 22.1538 26.6716 22.0174 27.1657 21.7448C27.6684 21.4636 28.0646 21.0589 28.3543 20.5307C28.6525 19.9939 28.8016 19.3463 28.8016 18.588Z" fill="#232323"/>
<path d="M44.6525 21.9109L44.6781 14.46H45.5471L51.0683 7.43076H58.1486L49.9436 17.5017H48.2949L44.6525 21.9109ZM39.0164 27.0614V0.887207H45.266V27.0614H39.0164ZM51.2088 27.0614L46.0711 18.9075L50.1864 14.4728L58.4298 27.0614H51.2088Z" fill="#232323"/>
<path d="M77.5236 13.4248L71.7853 13.5781C71.7256 13.1692 71.5637 12.807 71.2996 12.4918C71.0355 12.168 70.6904 11.9167 70.2644 11.7378C69.8469 11.5503 69.3612 11.4566 68.8074 11.4566C68.0832 11.4566 67.4655 11.6014 66.9543 11.8911C66.4516 12.1808 66.2045 12.5727 66.213 13.0669C66.2045 13.4503 66.3579 13.7826 66.6731 14.0638C66.9969 14.3449 67.572 14.5707 68.3985 14.7411L72.1814 15.4568C74.1411 15.8317 75.5981 16.4537 76.5523 17.3228C77.5151 18.1918 78.0008 19.3421 78.0093 20.7735C78.0008 22.1197 77.6003 23.2912 76.8079 24.2881C76.0241 25.285 74.9505 26.0603 73.5873 26.6141C72.224 27.1594 70.6648 27.4321 68.9097 27.4321C66.1065 27.4321 63.8955 26.8569 62.2766 25.7067C60.6663 24.548 59.7461 22.9973 59.5161 21.0547L65.689 20.9013C65.8253 21.617 66.1789 22.1623 66.7498 22.5372C67.3206 22.9121 68.0491 23.0995 68.9352 23.0995C69.7361 23.0995 70.3879 22.9504 70.8906 22.6522C71.3933 22.354 71.6489 21.9578 71.6574 21.4636C71.6489 21.0206 71.453 20.667 71.0696 20.4029C70.6861 20.1302 70.0855 19.9172 69.2675 19.7638L65.8424 19.112C63.8742 18.7542 62.4087 18.0939 61.4459 17.1311C60.4831 16.1598 60.006 14.9243 60.0145 13.4248C60.006 12.1126 60.3553 10.9922 61.0625 10.0635C61.7697 9.12629 62.7751 8.41059 64.0787 7.91642C65.3823 7.42224 66.9202 7.17516 68.6924 7.17516C71.3507 7.17516 73.4467 7.73323 74.9804 8.84939C76.514 9.95702 77.3618 11.4821 77.5236 13.4248Z" fill="#232323"/>
<rect x="39.7316" y="33.488" width="39.8456" height="7.88733" fill="#4B68FF"/>
</svg>
